<?xml version="1.0" encoding="utf-8"?>
<!-- Generator: Adobe Illustrator 23.0.1, SVG Export Plug-In . SVG Version: 6.00 Build 0)  -->
<svg version="1.1" id="Layer_1" xmlns="http://www.w3.org/2000/svg" xmlns:xlink="http://www.w3.org/1999/xlink" x="0px" y="0px"
	 viewBox="0 0 612 792" style="enable-background:new 0 0 612 792;" xml:space="preserve">
<style type="text/css">
	.st0{fill:#5A4C86;}
	.st1{fill:#FAFAFB;}
	.st2{fill:#FCE579;}
	.st3{fill:#F6F6F6;}
	.st4{fill:#84CDAC;}
	.st5{fill:#7AC4EE;}
	.st6{fill:#F5F6F6;}
	.st7{fill:#F4F5F3;}
	.st8{fill:#F5F5F5;}
	.st9{fill:#EEEEEE;}
	.st10{fill:#8BCEAD;}
	.st11{fill:#EFEEE4;}
	.st12{fill:#7DC5ED;}
	.st13{fill:#FDFDFD;}
	.st14{fill:#5C4D86;}
	.st15{fill:#E5EDED;}
</style>
<g>
	<g>
		<path class="st0" d="M288.85,793.34c-177.81,0-355.62-0.02-533.43,0.13c-5.06,0-6.2-1.13-6.2-6.16
			c0.14-264.31,0.14-528.62,0-792.92c0-5.03,1.14-6.16,6.2-6.16c355.62,0.14,711.24,0.14,1066.86,0c5.06,0,6.2,1.13,6.2,6.16
			c-0.14,264.31-0.14,528.62,0,792.92c0,5.03-1.14,6.17-6.2,6.16C644.47,793.32,466.66,793.34,288.85,793.34z M551.57,391.05
			c0.1-144.31-117.51-261.5-262.54-261.6c-143.99-0.1-262.78,116.66-262.92,258.42C25.96,535.73,142.37,652.09,290.57,652.2
			C433.67,652.3,551.48,534.43,551.57,391.05z"/>
		<path class="st1" d="M551.57,391.05c-0.1,143.39-117.9,261.26-261.01,261.15C142.37,652.09,25.96,535.73,26.11,387.87
			c0.14-141.76,118.93-258.52,262.92-258.42C434.06,129.55,551.67,246.73,551.57,391.05z M225.26,566.53
			c0.11,17.55,0.18,35.11,0.37,52.66c0.03,2.32-1.02,4.94,1.23,6.91c24.35,1.14,48.71,0.74,73.07,0.21c0.6-0.2,1.19-0.41,1.79-0.61
			l0.29,0.17l0.32-0.12c1.43-1.05,1.24-2.49,0.99-3.96c-0.01-18-0.01-36-0.02-54c0.04-1.11,0.09-2.23,0.13-3.34
			c5.57-0.51,11.13-0.61,16.68,0.21c-3.36,19.02-0.95,38.18-1.39,57.27c-0.09,4.09,3.05,5.21,6.5,4.98
			c15.43-1.07,30.86,1.93,46.39-3.43c10.6-3.66,20.54-8.39,30.74-12.72c9.22-3.16,16.87-9.13,25.17-13.94
			c3.53-2.05,4.87-4.87,4.77-8.83c-0.15-5.81,0.19-11.63-0.06-17.43c-0.22-5.02,1.92-6.72,6.81-6.54c7.4,0.27,14.82,0.06,22.24,0.08
			c2.74,0.01,5.64,0.04,7.57-2.1c7.87-8.75,16.36-17.02,22.12-27.45c4-6.07,7.72-12.35,12.1-18.12c2.7-3.55,4.25-7.16,4.3-11.51
			c3.59-0.83,4.67-3.64,5.39-6.74c8.94-17.63,15.03-36.23,18.72-55.58c1.92-10.07,1.61-10.15-8.48-10.15
			c-25.4-0.01-50.8,0.03-76.2-0.03c-4.74-0.01-9.43,0.2-14.05,1.29c-0.81-5.23-0.71-10.46-0.1-15.7
			c32.58-0.02,65.16-0.04,97.74-0.05c3.43,0,6.59,0.42,6.75-4.86c0.37-12.71,1.58-25.35,0.39-38.15c-0.59-6.43-2.85-7.58-8.56-7.54
			c-32.13,0.21-64.26,0.11-96.39,0.11c-0.52-4.94-0.59-9.87,0.07-14.8c3.78,0.02,7.58-0.17,11.35,0.11
			c4.85,0.36,6.72-1.37,6.55-6.42c-0.33-9.73-0.06-19.48-0.04-29.23c4.9-0.01,9.8-0.01,14.7-0.02c0.03,10.02,0.2,20.05,0.02,30.07
			c-0.07,3.97,1.19,5.58,5.34,5.55c19.7-0.12,39.41-0.08,59.11,0.01c3.87,0.02,5.4-1.55,4.59-5.28c-2.26-10.41-3.73-21.03-8.08-30.9
			c-2.31-10.35-6.46-20-11.26-29.41c-10.57-24.41-25.88-45.68-43.77-65.23c-1.28-1.4-2.35-4.01-4.56-3.21
			c-2.26,0.82-1.27,3.5-1.28,5.37c-0.06,20.94-0.04,41.87-0.05,62.81c-4.9,0.02-9.81,0.04-14.71,0.06
			c-0.04-26.04-0.23-52.09-0.01-78.13c0.04-5.3-1.57-8.92-5.96-11.67c-3.01-1.89-5.84-4.07-8.75-6.12c-0.16-0.26-0.39-0.38-0.7-0.39
			c-0.9-0.76-1.81-1.52-2.71-2.28c-7.57-5.9-16.06-10.35-24.25-15.29c-4.5-2.72-6.46-1.67-6.16,3.56
			c-13.77-0.06-27.54-0.13-41.31-0.16c-2.64-0.01-5.48-0.36-6.82,2.81l0.06,0.46c0.65,34.72,0.65,69.45-0.01,104.17
			c-0.15,0.92-0.3,1.84-0.44,2.76c-21.51,1.07-43.02,0.66-64.53,0.25c1.88-2.7,4.76-2.08,7.37-2.1c11.66-0.06,23.32-0.26,34.97,0.06
			c6.16,0.17,8.66-2.6,8.7-8.27c0.06-8.47,0.01-16.95,0.01-25.42c0.01-2.2,0.02-4.4,0.02-6.61c0.01-21.49,0.02-42.97,0.03-64.46
			c-1.16-4.46-4.77-3.93-8.12-3.95c-13.9,0-27.8-0.01-41.7-0.01c-3.15,0.42-6.31,0.84-9.46,1.27c-2.72-1.35-5.45-1.35-8.17,0.01
			c-1.77,0-3.54,0-5.31,0c-9.83-2.12-19.79-1.05-29.7-1.28c-12.15-0.07-12.16-0.07-12.16,12.25c0,18.72,0.01,37.44,0.02,56.16
			c0.01,2.22,0.01,4.43,0.02,6.65c-0.01,7.54,0.16,15.09-0.09,22.63c-0.17,5.23,2.08,7.12,7.18,6.96
			c13.35-0.42,26.75,0.87,40.04-1.36c0,0.88,0,1.76,0,2.64c-3.36-0.11-5.45,1.19-5.42,4.84c-19.3,0.01-38.61,0.02-57.91,0.03
			c-0.44-4.99-6.91-2.17-8.1-6.18c3.22-0.19,7.87,0.84,8.45-3.27c1.17-8.3,3.26-16.94-1.72-24.93c2.93-1.98,2.65-4.99,2.61-7.94
			c0.03-17.65,0.06-35.3,0.07-52.95c0.01-11.18-2.67-13.48-13.88-13.1c-8.28,0.28-16.98,1.91-24.75-0.73
			c-6.95-2.36-11.26-0.4-15.45,4.14c-2.39,2.59-5.08,4.34-8.49,5.06c-11.35,5.65-20.18,14.53-29.39,22.88
			c-0.86,0.78-0.88,2.46-1.29,3.73c-2.64,0.07-4.71,1.31-6.36,3.24c-3.61,4.22-7.21,8.45-10.69,12.78
			c-3.71,4.63-8.75,8.41-9.76,14.81c-3.48,1.02-5.35,3.62-6.7,6.73c-0.44,2.31-2.22,3.77-3.45,5.6
			c-3.82,5.67-9.06,10.52-10.74,17.48c-1.53,6.33,1.02,10.04,7.54,10.37c6.24,0.31,12.5,0.08,18.75,0.14
			c2.42,0.02,5.01-0.34,6.66,2.13c-11.63,0.11-23.27,0.22-34.9,0.34c-2.7,0.03-5.58-0.21-6.79,2.99c-3.3,8.7-8.2,16.84-9.42,26.28
			c-0.16,0.46-0.32,0.92-0.48,1.37L50.88,318c-0.7,1.87-1.56,3.7-2.09,5.61c-11.39,41.03-12.46,82.32-2.68,123.78
			c1.2,5.08,1.33,10.66,5.24,14.85c3.9,0.04,3.39-2.91,3.39-5.23c-0.03-46.21-0.12-92.43-0.2-138.64c0.19-0.35,0.31-0.72,0.38-1.12
			c5.14,0.02,10.28,0.04,15.42,0.06c-0.98,4.83-1.4,9.69-1.37,14.64c0.11,16.76,0.06,33.52,0.03,50.29
			c-0.01,4.7-0.11,9.39,1.35,13.95c0.01,2.68,0.02,5.37,0.03,8.05c0.65,5.56-0.88,11.01-0.47,16.64c0.88,12.2,2.87,24.4,1.57,36.66
			c-0.5,4.74,1.35,5.82,5.55,5.78c13.45-0.12,26.91-0.03,40.36-0.03c-0.01,4.91-0.03,9.82-0.04,14.73
			c-12.73,0.01-25.46-0.09-38.18,0.08c-7.53,0.1-10.03,2.77-10.12,10.1c-0.06,5.11-0.01,10.22,0,15.33
			c0.01,3.69,0.73,7.09,4.01,9.39c1.03,3.45,2.62,6.34,6.73,6.75c-0.12,3.49,1.06,6.55,3.15,9.3c7.28,9.57,14.24,19.4,21.98,28.59
			c3.41,4.05,5.84,9.88,12.43,10.38c0.4,2.25,1.26,4.25,3.05,5.78c8.62,7.34,17.22,14.72,26.77,20.9c2.37,1.92,5.19,2.58,8.14,2.87
			c14.28,12.65,31.55,19.59,49.41,25.21c3.64,1.15,5.89-1.2,5.87-5.21c-0.03-6.69,0-13.38,0.01-20.07
			c-0.01-2.22-0.01-4.43-0.02-6.65c0.01-4.4-0.32-8.83,0.12-13.19c0.59-5.96-0.65-10.65-6.69-13.1c6.69-0.04,13.38-0.07,20.08-0.11
			C224.48,565.1,224.87,565.81,225.26,566.53z M375.13,159.79c-0.57-2.4-2.65-2.09-4.29-2.55c-7.74-2.17-15.79-3.61-23.14-6.71
			c-10.29-4.34-21.34-4.37-31.93-5.98c-9.92-1.51-20.44-0.46-30.65-1.78c-1.94-0.25-5.05-0.72-5.48,1.26
			c-1.02,4.75-0.96,9.84,0.52,14.48c1.19,3.75,5.17,2.86,8.2,2.87c26.9,0.05,53.8,0.05,80.71-0.01
			C371.15,161.36,373.62,162.18,375.13,159.79z M248.91,161.38c0,0.01,0,0.02,0,0.02c5.39,0,10.8-0.27,16.16,0.07
			c6.01,0.38,7.88-2.28,7.71-7.94c-0.17-5.39-0.3-10.01-7.67-9.58c-10.48,0.62-20.27,5.37-30.92,4.92
			c-1.32-0.06-2.66,0.37-3.98,0.63c-3.98,0.78-4.6,3.78-4.63,7.1c-0.03,3.93,2.53,4.79,5.82,4.78
			C237.23,161.37,243.07,161.38,248.91,161.38z"/>
		<path class="st2" d="M432.64,352.71c-0.65,4.93-0.58,9.87-0.07,14.8c-0.75,16.83-0.9,33.65,0.07,50.48
			c-0.61,5.24-0.71,10.47,0.1,15.7c-0.82,21.46-0.9,42.93,0.06,64.39c-0.64,2.29-0.64,4.59-0.04,6.88
			c-0.79,9.37-0.96,18.74,0.27,28.09c0.46,0.31,0.91,0.62,1.37,0.93c18.85,0.19,37.71,0.38,56.56,0.57
			c-5.77,10.43-14.26,18.7-22.12,27.45c-1.93,2.15-4.83,2.11-7.57,2.1c-7.41-0.02-14.83,0.19-22.24-0.08
			c-4.89-0.18-7.02,1.52-6.81,6.54c0.25,5.8-0.09,11.62,0.06,17.43c0.1,3.96-1.23,6.78-4.77,8.83c-8.3,4.81-15.95,10.78-25.17,13.94
			c-0.81-14.72,0.7-29.49-0.81-44.2c-0.54-1-1.36-1.57-2.52-1.61c-1.52-0.04-3.04-0.08-4.56-0.11c-23.66-1.26-47.32-1.19-70.98,0.04
			c-1.12-0.08-2.24-0.15-3.36-0.23c-5.55-0.82-11.12-0.72-16.69-0.21c-0.4-0.03-0.77,0.05-1.11,0.25
			c-24.71-1.26-49.44-0.55-74.16-0.36c-0.82,0.01-1.64,0.03-2.47,0.04c-0.54,0-1.07,0.01-1.61,0.01
			c-6.69,0.04-13.38,0.07-20.08,0.11c-17.17-0.13-34.34-0.26-51.5-0.39c-2.89-0.02-4.87,1.13-4.78,4.22
			c0.22,7.51-1.1,15.06,0.61,22.53c-0.4,1.26-0.79,2.52-1.19,3.79c-9.55-6.17-18.14-13.55-26.77-20.9c-1.8-1.53-2.66-3.53-3.05-5.78
			c0.01-16.1,0.02-32.2,0.03-48.29c0-1.8,0-3.6,0-5.4c-0.01-12.07-0.03-24.15-0.04-36.22c0.01-4.91,0.03-9.82,0.04-14.73
			c0.01-19.68,0.02-39.36,0.02-59.04c-0.01-2.69-0.01-5.38-0.02-8.07c0.08-24.53,0.13-49.06,0.28-73.59
			c0.02-3.98-1.7-5.68-5.65-5.63c-13.89,0.16-27.79,0.23-41.68,0.34c-5.14-0.02-10.28-0.04-15.42-0.06
			c-1.14-0.22-2.27-0.43-3.4-0.65c1.22-9.44,6.11-17.58,9.42-26.28c1.21-3.19,4.1-2.96,6.79-2.99c11.63-0.11,23.27-0.23,34.9-0.34
			c2.22,0.11,4.45,0.09,6.65,0.36c6.31,0.78,8.84-1.67,8.48-8.19c-0.51-9.26-0.28-18.57-0.37-27.86c0-1.82-0.01-3.63-0.01-5.45
			c-0.01-10.71-0.01-21.43-0.02-32.14c0.41-1.26,0.43-2.95,1.29-3.73c9.22-8.36,18.04-17.24,29.39-22.88
			c-0.71,19.12-0.58,38.24-0.02,57.36c-0.53,2.33-0.53,4.65,0.07,6.96c-0.75,9.33-0.61,18.67-0.09,28.01
			c-0.81,4.48-0.61,8,5.55,7.92c18.58-0.24,37.17-0.26,55.75-0.36c19.3-0.01,38.61-0.02,57.91-0.03c4.54-0.02,9.08-0.04,13.62-0.06
			c0.85,0,1.7,0,2.55,0.01c1.86,0.02,3.73,0.03,5.59,0.05c21.51,0.41,43.02,0.82,64.53-0.25c0.34,0.15,0.69,0.22,1.05,0.22
			c14.12,0.12,28.24,0.17,42.36,0.41c4.15,0.07,5.4-1.68,5.38-5.61c-0.17-35.02-0.2-70.05-0.28-105.07
			c-0.31-5.23,1.65-6.28,6.16-3.56c8.18,4.94,16.68,9.39,24.25,15.29c-0.05,0.85-0.09,1.7-0.13,2.55
			c-0.05,29.65-0.14,59.31-0.05,88.96c0.01,2.25-1.15,5.66,2.91,6.33c0.6,0.25,1.21,0.5,1.81,0.75c4.1,0.54,8.21,0.6,12.31-0.03
			l0.64,0.08l0.64-0.06c4.9-0.02,9.81-0.04,14.71-0.06c16.55,0.09,33.1,0.17,49.66,0.26c4.81,9.4,8.95,19.06,11.26,29.41
			c-20.33,0.18-40.65,0.37-60.98,0.55c-4.9,0.01-9.8,0.01-14.7,0.02c-4.46-0.1-8.92-0.2-13.38-0.31c-3.16-0.08-5.16,1-5.06,4.57
			C432.35,331.86,431.39,342.31,432.64,352.71z M401.92,420.3c-0.02-0.76-0.05-1.53-0.07-2.29c0.73-16.89,0.53-33.79,0.12-50.69
			c-0.01-4.81-0.02-9.61-0.03-14.42c0.1-10.22,0.12-20.44,0.33-30.66c0.09-4.11-1.86-5.43-5.72-5.39
			c-14.08,0.18-28.15,0.21-42.23,0.3c-0.66,0.05-1.32,0.11-1.98,0.16c-4.07-0.01-8.15-0.03-12.22-0.04
			c-38.23-0.55-76.45-0.54-114.68,0c-4.93,0-9.87,0-14.8,0.01c-19.08-0.1-38.16-0.15-57.24-0.33c-3.93-0.04-5.8,1.41-5.77,5.44
			c0.19,25.01,0.3,50.01,0.44,75.02c0.01,1.89,0.02,3.78,0.03,5.67c-0.78,20.07-0.74,40.14-0.03,60.21
			c-0.57,4.83-0.77,9.65,0.07,14.47c-0.17,17.38-0.3,34.76-0.57,52.14c-0.06,3.63,1.53,4.42,4.89,4.38
			c19.27-0.19,38.55-0.17,57.82-0.23c0.59-0.02,1.19-0.03,1.78-0.05c4.45-0.04,8.89-0.09,13.34-0.13
			c26.09,0.46,52.19,0.66,78.28-0.1c4.93,0.57,9.86,0.56,14.8,0c26.2,0.13,52.4,0.22,78.61,0.42c3.78,0.03,5.15-1.51,5.05-5.21
			c-0.22-8.01-0.19-16.04-0.25-24.06c0-1.82-0.01-3.64-0.01-5.46c-0.01-21.9-0.03-43.81-0.04-65.71
			C401.87,429.26,401.9,424.78,401.92,420.3z"/>
		<path class="st3" d="M432.81,498.08c-0.96-21.46-0.88-42.93-0.06-64.39c4.62-1.09,9.31-1.3,14.05-1.29
			c25.4,0.06,50.8,0.02,76.2,0.03c10.09,0,10.4,0.08,8.48,10.15c-3.69,19.35-9.78,37.96-18.72,55.58
			C486.1,498.14,459.46,498.11,432.81,498.08z"/>
		<path class="st4" d="M402.01,176.68c0.07,35.02,0.11,70.05,0.28,105.07c0.02,3.93-1.23,5.69-5.38,5.61
			c-14.12-0.25-28.24-0.29-42.36-0.41c-0.2-0.99-0.41-1.99-0.61-2.98c0.66-34.72,0.65-69.45,0.01-104.17c0,0-0.06-0.46-0.06-0.46
			c1.34-3.18,4.18-2.82,6.82-2.81C374.47,176.56,388.24,176.63,402.01,176.68z"/>
		<path class="st4" d="M432.64,417.99c-0.98-16.82-0.82-33.65-0.07-50.48c32.13-0.01,64.27,0.1,96.4-0.12
			c5.71-0.04,7.96,1.11,8.56,7.54c1.18,12.8-0.02,25.44-0.39,38.15c-0.15,5.28-3.32,4.85-6.75,4.86
			C497.81,417.96,465.23,417.97,432.64,417.99z"/>
		<path class="st5" d="M228.16,564.33c24.72-0.19,49.44-0.9,74.16,0.36c0.33,1.03,0.65,2.07,0.98,3.1c0.01,18,0.01,36,0.02,54
			c-0.33,1.32-0.66,2.64-0.99,3.96c0,0-0.32,0.12-0.32,0.12s-0.29-0.17-0.29-0.17c-0.6,0.21-1.19,0.41-1.79,0.61
			c-24.36,0.53-48.72,0.93-73.07-0.21c-0.02-14.42-0.1-28.85-0.01-43.28C226.88,576.64,226.04,570.37,228.16,564.33z"/>
		<path class="st6" d="M394.46,564.84c1.52,0.04,3.04,0.08,4.56,0.11c0.84,0.54,1.68,1.07,2.52,1.61c1.51,14.71,0,29.47,0.81,44.2
			c-10.21,4.32-20.14,9.06-30.74,12.72c-15.53,5.36-30.96,2.36-46.39,3.43c-3.46,0.24-6.6-0.89-6.5-4.98
			c0.44-19.09-1.97-38.25,1.39-57.27c1.12,0.07,2.24,0.15,3.37,0.23c2.32,1.67,5,1.71,7.7,1.71c18.53-0.01,37.07-0.01,55.6,0
			C389.48,566.6,392.16,566.57,394.46,564.84z"/>
		<path class="st3" d="M148.02,244.49c-0.56-19.12-0.7-38.24,0.02-57.36c3.41-0.73,6.1-2.48,8.49-5.06c4.19-4.54,8.5-6.5,15.45-4.14
			c7.78,2.64,16.47,1.02,24.75,0.73c11.21-0.39,13.89,1.92,13.88,13.1c-0.01,17.65-0.05,35.3-0.07,52.95
			C189.7,244.63,168.86,244.56,148.02,244.49z"/>
		<path class="st3" d="M340.08,180.19c-0.01,21.49-0.02,42.97-0.03,64.46c-19.31-0.02-38.63-0.04-57.94-0.06
			c-0.44-1.35-1.33-2.24-2.69-2.68c0.72-21.47-1.6-43,1.39-64.42c3.15-0.42,6.31-0.84,9.46-1.27c1.7,3.34,4.88,2.59,7.66,2.61
			c11.36,0.07,22.73,0.04,34.09,0.04C334.5,180.55,337.33,180.12,340.08,180.19z"/>
		<path class="st6" d="M70.33,317.32c13.89-0.11,27.79-0.18,41.68-0.34c3.94-0.05,5.67,1.65,5.65,5.63
			c-0.15,24.53-0.2,49.06-0.28,73.59c-15.68,0-31.36-0.01-47.04-0.01c-1.46-4.55-1.35-9.25-1.34-13.95
			c0.02-16.76,0.08-33.52-0.03-50.29C68.93,327.01,69.35,322.15,70.33,317.32z"/>
		<path class="st3" d="M225.48,244.63c-0.01-18.72-0.02-37.44-0.02-56.16c0-12.32,0.01-12.32,12.16-12.25
			c-0.64,0.95-1.47,2.46,0.39,2.42c9.78-0.21,19.64,1.66,29.32-1.13c1.77,0,3.54,0,5.31,0c0.01,19.9-0.11,39.79,0.1,59.69
			c0.06,5.48-1.92,7.58-7.48,7.48C252,244.44,238.74,244.62,225.48,244.63z"/>
		<path class="st3" d="M117.39,404.26c-0.01,19.68-0.02,39.36-0.02,59.04c-13.45-0.01-26.91-0.09-40.36,0.03
			c-4.2,0.04-6.05-1.04-5.55-5.78c1.3-12.26-0.69-24.47-1.57-36.66c-0.41-5.63,1.12-11.08,0.47-16.64
			C86.04,404.25,101.72,404.26,117.39,404.26z"/>
		<path class="st4" d="M465.2,317.16c20.33-0.18,40.65-0.37,60.98-0.55c4.35,9.87,5.83,20.49,8.08,30.9
			c0.81,3.73-0.72,5.3-4.59,5.28c-19.7-0.09-39.41-0.14-59.11-0.01c-4.15,0.03-5.41-1.58-5.34-5.55
			C465.4,337.21,465.23,327.18,465.2,317.16z"/>
		<path class="st7" d="M280.83,286.93c-4.54,0.02-9.08,0.04-13.62,0.06c-0.03-3.65,2.06-4.95,5.42-4.84c4.02,4.68,6.27,2.65,6.6-2.2
			c0.46-6.88,0.47-13.83,0.08-20.71c-0.35-6.26,2.27-8.12,8.28-8.03c17.47,0.26,34.95,0.06,52.42,0.05c0,8.47,0.04,16.95-0.01,25.42
			c-0.04,5.67-2.54,8.44-8.7,8.27c-11.65-0.32-23.32-0.12-34.97-0.06c-2.61,0.01-5.5-0.61-7.37,2.1c-1.86-0.02-3.72-0.03-5.59-0.05
			C282.53,285.45,281.68,285.45,280.83,286.93z"/>
		<path class="st4" d="M514.92,287.2c-16.55-0.09-33.1-0.17-49.66-0.26c0-20.94-0.02-41.87,0.05-62.81
			c0.01-1.87-0.98-4.55,1.28-5.37c2.2-0.8,3.27,1.81,4.56,3.21C489.04,241.52,504.35,262.79,514.92,287.2z"/>
		<path class="st3" d="M490.96,534.55c-18.85-0.19-37.71-0.38-56.56-0.57c-0.46-0.31-0.91-0.62-1.37-0.93
			c-1.22-9.35-1.06-18.72-0.27-28.09c11.88-0.03,23.78,0.21,35.65-0.18c6.37-0.21,8.42,2.39,7.98,8.32
			c-0.31,4.21-0.11,8.47-0.01,12.71c0.06,2.43-0.08,5.49,3.44,5.38c3.46-0.11,3.16-3.21,3.22-5.61c0.1-4.68,0.21-9.37,0.01-14.05
			c-0.21-4.92,1.99-6.84,6.83-6.68c5.82,0.2,11.66,0.06,17.49,0.06c-0.05,4.35-1.6,7.96-4.3,11.51
			C498.67,522.2,494.96,528.48,490.96,534.55z"/>
		<path class="st3" d="M147.99,279.46c-0.52-9.34-0.66-18.68,0.09-28.01c17.12-0.05,34.24-0.1,51.35-0.16
			c2.91-0.01,5.79,0.07,8.48,1.35c4.98,7.99,2.89,16.63,1.72,24.93c-0.58,4.11-5.22,3.08-8.45,3.27c-2.61-1.69-5.56-1.34-8.44-1.34
			C177.84,279.46,162.92,279.47,147.99,279.46z"/>
		<path class="st6" d="M117.33,478.03c0.01,12.07,0.03,24.15,0.04,36.22c-14.71-2.64-29.56-0.76-44.33-1.32
			c-3.29-2.31-4.01-5.7-4.01-9.39c-0.01-5.11-0.07-10.22,0-15.33c0.09-7.32,2.6-9.99,10.12-10.1
			C91.87,477.94,104.6,478.05,117.33,478.03z"/>
		<path class="st7" d="M148.34,590.84c-1.71-7.47-0.39-15.02-0.61-22.53c-0.09-3.09,1.89-4.24,4.78-4.22
			c17.17,0.14,34.34,0.26,51.5,0.39c6.03,2.45,7.28,7.14,6.69,13.1c-0.43,4.36-0.1,8.79-0.12,13.19
			C189.83,590.8,169.09,590.82,148.34,590.84z"/>
		<path class="st8" d="M117.38,251.32c0.09,9.29-0.14,18.59,0.37,27.86c0.36,6.51-2.17,8.96-8.48,8.19
			c-2.2-0.27-4.43-0.25-6.65-0.36c-1.65-2.47-4.24-2.11-6.66-2.13c-6.25-0.06-12.51,0.17-18.75-0.14
			c-6.52-0.32-9.07-4.03-7.54-10.37c1.68-6.96,6.92-11.8,10.74-17.48c1.23-1.83,3.01-3.29,3.45-5.6
			C95.03,251.3,106.21,251.31,117.38,251.32z"/>
		<path class="st9" d="M340.02,251.26c-17.48,0.02-34.95,0.21-52.42-0.05c-6.01-0.09-8.63,1.77-8.28,8.03
			c0.38,6.89,0.37,13.83-0.08,20.71c-0.32,4.84-2.58,6.87-6.6,2.2c0-0.88,0-1.76,0-2.64c0.01-6.93-0.2-13.87,0.1-20.78
			c0.23-5.48-1.9-7.59-7.46-7.49c-13.25,0.24-26.51,0.06-39.77,0.04c-0.01-2.22-0.01-4.43-0.02-6.65
			c13.26-0.01,26.52-0.19,39.78,0.04c5.56,0.1,7.53-2,7.48-7.48c-0.21-19.89-0.09-39.79-0.1-59.69c2.72-1.35,5.44-1.35,8.17-0.01
			c-2.99,21.42-0.67,42.95-1.39,64.42c0.43,1.36,1.33,2.25,2.69,2.68c19.31,0.02,38.63,0.04,57.94,0.06
			C340.04,246.85,340.03,249.06,340.02,251.26z"/>
		<path class="st10" d="M450.55,287l-0.64,0.06c0,0-0.64-0.08-0.64-0.08c-0.89-0.63-1.7-1.6-2.68-1.83
			c-12.03-2.76-12.05-2.74-12.05-15.21c-0.01-23,0-45.99,0-68.99c0-3.34-0.23-6.72,1.29-9.87c2.91,2.05,5.73,4.23,8.75,6.12
			c4.39,2.75,6.01,6.38,5.96,11.67C450.31,234.91,450.5,260.96,450.55,287z"/>
		<path class="st10" d="M51.35,462.24c-3.91-4.18-4.04-9.77-5.24-14.85c-9.78-41.47-8.71-82.75,2.68-123.78
			c0.53-1.92,1.39-3.74,2.09-5.61c2,2.97,1.93,6.34,1.93,9.7c-0.01,41.79-0.01,83.57,0,125.36
			C52.81,456.21,52.73,459.32,51.35,462.24z"/>
		<path class="st7" d="M225.5,251.28c13.26,0.01,26.52,0.19,39.77-0.04c5.56-0.1,7.69,2.01,7.46,7.49
			c-0.29,6.92-0.09,13.85-0.1,20.78c-13.29,2.23-26.69,0.94-40.04,1.36c-5.1,0.16-7.35-1.73-7.18-6.96
			C225.66,266.37,225.49,258.82,225.5,251.28z"/>
		<path class="st8" d="M375.13,159.79c-1.51,2.39-3.98,1.58-6.06,1.58c-26.9,0.06-53.8,0.06-80.71,0.01
			c-3.03-0.01-7.01,0.88-8.2-2.87c-1.48-4.64-1.54-9.73-0.52-14.48c0.43-1.98,3.54-1.51,5.48-1.26c10.21,1.31,20.73,0.27,30.65,1.78
			c10.58,1.61,21.63,1.64,31.93,5.98c7.35,3.1,15.4,4.54,23.14,6.71C372.47,157.7,374.56,157.39,375.13,159.79z"/>
		<path class="st3" d="M117.36,519.66c-0.01,16.1-0.02,32.2-0.03,48.29c-6.6-0.51-9.03-6.33-12.43-10.38
			c-7.73-9.19-14.7-19.02-21.98-28.59c-2.09-2.75-3.27-5.81-3.15-9.3C92.3,519.67,104.83,519.67,117.36,519.66z"/>
		<path class="st3" d="M210.59,597.43c-0.01,6.69-0.04,13.38-0.01,20.07c0.02,4.01-2.23,6.36-5.87,5.21
			c-17.87-5.62-35.14-12.56-49.41-25.21C173.73,597.48,192.16,597.45,210.59,597.43z"/>
		<path class="st9" d="M507.36,504.91c-5.83-0.01-11.67,0.14-17.49-0.06c-4.84-0.17-7.04,1.76-6.83,6.68
			c0.2,4.68,0.09,9.37-0.01,14.05c-0.05,2.4,0.25,5.5-3.22,5.61c-3.51,0.11-3.38-2.95-3.44-5.38c-0.1-4.24-0.3-8.49,0.01-12.71
			c0.44-5.92-1.61-8.53-7.98-8.32c-11.87,0.39-23.77,0.16-35.65,0.18c-0.59-2.3-0.6-4.59,0.05-6.88c26.65,0.03,53.3,0.06,79.95,0.09
			C512.03,501.27,510.95,504.09,507.36,504.91z"/>
		<path class="st8" d="M248.91,161.38c-5.84,0-11.68-0.01-17.52,0.01c-3.29,0.01-5.85-0.84-5.82-4.78c0.03-3.32,0.65-6.32,4.63-7.1
			c1.32-0.26,2.67-0.69,3.98-0.63c10.65,0.45,20.44-4.31,30.92-4.92c7.36-0.43,7.5,4.19,7.67,9.58c0.18,5.66-1.69,8.32-7.71,7.94
			c-5.37-0.34-10.77-0.07-16.16-0.07C248.91,161.4,248.91,161.39,248.91,161.38z"/>
		<path class="st10" d="M432.64,352.71c-1.25-10.41-0.29-20.85-0.59-31.28c-0.1-3.57,1.9-4.65,5.06-4.57
			c4.46,0.11,8.92,0.21,13.38,0.31c-0.02,9.74-0.29,19.5,0.04,29.23c0.17,5.05-1.69,6.78-6.55,6.42
			C440.22,352.55,436.43,352.73,432.64,352.71z"/>
		<path class="st3" d="M117.36,213.73c0.01,10.71,0.01,21.43,0.02,32.14c-8.83-2.62-17.89-0.63-26.82-1.32
			c1-6.4,6.04-10.18,9.76-14.81c3.47-4.33,7.08-8.55,10.69-12.78C112.65,215.05,114.72,213.8,117.36,213.73z"/>
		<path class="st6" d="M147.99,279.46c14.92,0.01,29.84,0.01,44.76,0.04c2.87,0.01,5.83-0.34,8.44,1.34
			c1.19,4.01,7.66,1.19,8.1,6.18c-18.58,0.1-37.17,0.12-55.75,0.36C147.38,287.46,147.18,283.94,147.99,279.46z"/>
		<path class="st11" d="M207.92,252.64c-2.69-1.28-5.58-1.36-8.48-1.35c-17.12,0.06-34.24,0.11-51.35,0.16
			c-0.6-2.31-0.6-4.64-0.07-6.96c20.84,0.07,41.68,0.14,62.52,0.21C210.58,247.64,210.85,250.66,207.92,252.64z"/>
		<path class="st9" d="M210.59,597.43c-18.43,0.03-36.86,0.05-55.29,0.08c-2.95-0.29-5.77-0.95-8.14-2.87
			c0.39-1.26,0.79-2.53,1.19-3.79c20.75-0.02,41.49-0.04,62.24-0.06C210.58,593,210.59,595.21,210.59,597.43z"/>
		<path class="st9" d="M117.39,404.26c-15.68-0.01-31.35-0.01-47.03-0.02c-0.01-2.68-0.02-5.37-0.03-8.05
			c15.68,0,31.36,0.01,47.04,0.01C117.38,398.89,117.39,401.57,117.39,404.26z"/>
		<path class="st4" d="M435.83,191.08c-1.52,3.15-1.29,6.53-1.29,9.87c-0.01,23-0.01,45.99,0,68.99c0,12.48,0.02,12.45,12.05,15.21
			c0.98,0.23,1.79,1.2,2.68,1.83c-4.1,0.63-8.2,0.57-12.31,0.03c-0.6-0.25-1.21-0.5-1.82-0.75c-4.06-0.68-2.9-4.08-2.91-6.33
			c-0.09-29.65,0-59.31,0.05-88.96c0.95-0.09,1.9-0.18,2.85-0.27C435.43,190.69,435.66,190.82,435.83,191.08z"/>
		<path class="st9" d="M117.36,519.66c-12.53,0.01-25.06,0.01-37.59,0.02c-4.11-0.41-5.7-3.3-6.73-6.75
			c14.77,0.56,29.62-1.31,44.33,1.32C117.37,516.06,117.37,517.86,117.36,519.66z"/>
		<path class="st9" d="M90.56,244.56c8.93,0.68,17.99-1.31,26.82,1.32c0,1.82,0.01,3.63,0.01,5.45
			c-11.18-0.01-22.35-0.02-33.53-0.03C85.21,248.18,87.08,245.58,90.56,244.56z"/>
		<path class="st4" d="M51.35,462.24c1.38-2.92,1.46-6.04,1.46-9.18c-0.01-41.79-0.01-83.57,0-125.36c0-3.36,0.07-6.73-1.93-9.7
			c0,0,0.15-0.02,0.15-0.02c1.17,0.13,2.34,0.26,3.51,0.39c0.08,46.21,0.16,92.43,0.2,138.64
			C54.74,459.34,55.24,462.29,51.35,462.24z"/>
		<path class="st9" d="M332.02,178.87c-11.36,0-22.73,0.03-34.09-0.04c-2.79-0.02-5.97,0.74-7.66-2.61
			c13.9,0.01,27.8,0.01,41.7,0.01C331.98,177.12,332,177.99,332.02,178.87z"/>
		<path class="st12" d="M228.16,564.33c-2.12,6.04-1.28,12.31-1.31,18.5c-0.09,14.43,0,28.85,0.01,43.28
			c-2.25-1.97-1.2-4.59-1.23-6.91c-0.19-17.55-0.26-35.11-0.37-52.66c0.14-0.72,0.29-1.44,0.43-2.16
			C226.51,564.36,227.34,564.34,228.16,564.33z"/>
		<path class="st9" d="M267.33,177.5c-9.67,2.79-19.54,0.93-29.32,1.13c-1.85,0.04-1.03-1.46-0.39-2.42
			C247.53,176.45,257.5,175.39,267.33,177.5z"/>
		<path class="st7" d="M332.02,178.87c-0.02-0.88-0.03-1.75-0.05-2.63c3.34,0.02,6.96-0.51,8.12,3.95
			C337.33,180.12,334.5,180.55,332.02,178.87z"/>
		<path class="st10" d="M435.13,190.69c-0.95,0.09-1.9,0.18-2.85,0.27c0.04-0.85,0.09-1.7,0.13-2.55
			C433.32,189.17,434.23,189.93,435.13,190.69z"/>
		<path class="st7" d="M353.93,283.97c0.2,0.99,0.41,1.99,0.61,2.98c-0.37,0-0.72-0.07-1.06-0.22
			C353.64,285.81,353.79,284.89,353.93,283.97z"/>
		<path class="st12" d="M303.29,567.79c-0.33-1.03-0.65-2.07-0.98-3.1c0.35-0.19,0.72-0.28,1.11-0.24
			C303.38,565.56,303.34,566.67,303.29,567.79z"/>
		<path class="st12" d="M302.32,625.74c0.33-1.32,0.66-2.64,0.99-3.96C303.57,623.25,303.75,624.7,302.32,625.74z"/>
		<path class="st10" d="M54.54,318.38c-1.17-0.13-2.34-0.26-3.51-0.39c0.16-0.46,0.32-0.92,0.48-1.38c1.13,0.21,2.27,0.43,3.4,0.65
			C54.85,317.65,54.73,318.03,54.54,318.38z"/>
		<path class="st7" d="M225.69,564.37c-0.14,0.72-0.29,1.44-0.43,2.16c-0.39-0.72-0.78-1.43-1.17-2.15
			C224.62,564.38,225.16,564.37,225.69,564.37z"/>
		<path class="st7" d="M353.89,179.34c0,0,0.06,0.47,0.06,0.46C353.94,179.8,353.89,179.34,353.89,179.34z"/>
		<path class="st12" d="M299.93,626.31c0.59-0.2,1.19-0.41,1.79-0.61C301.12,625.9,300.52,626.1,299.93,626.31z"/>
		<path class="st8" d="M303.71,533.77c-26.09,0.76-52.19,0.56-78.28,0.1c0.01-30.73,0.09-61.46-0.03-92.2
			c-0.02-5.65,0.84-9.83,7.87-9.34c1.92,0.13,3.47-0.76,4.34-2.57c12.94,21.95,21.21,45.48,24.2,70.8c0.2,1.68-0.39,4.18,2.11,4.18
			c2.51,0,1.87-2.51,2.09-4.18c4.23-32.22,15.67-61.58,35.29-87.67c9.76-12.98,16.89-26.83,15.01-43.75
			c5.49-3.67,11.7-2.21,17.67-2.38c4.2-0.12,6.11,2.12,6.1,6.21c-0.02,5.13,0.03,10.26,0.04,15.39
			c0.01,10.56,0.01,10.54,10.23,12.16c1.32,0.21,2.58,0.72,3.88,1.09l0.61,0.03c-0.24,5.15-0.48,10.31-0.72,15.46l0.09,0.26
			c7.44,0.89,14.89,0.53,22.34,0.22c0.88,0.25,1.75,0.51,2.63,0.76c-0.07,2.22,0.31,4.58-0.29,6.65c-1.7,5.89,0.72,7.67,6.33,7.5
			c5.57-0.17,11.22-0.59,16.66,1.26c0.01,21.9,0.03,43.81,0.04,65.71c-3.26-0.9-6.57-1.29-9.97-1.29
			c-24.45,0.06-48.89,0.06-73.34,0.08c-0.04-7.75-0.03-15.51-0.14-23.26c-0.05-3.95-1.71-5.36-5.46-3.1
			c-2.87,1.72-5.79,3.36-9.26,3.51c-0.02-11.61,0.01-23.22-0.08-34.82c-0.05-6.51-3.6-10.21-9.41-8.86
			c-4.8,1.12-5.26,5.84-4.59,9.81c0.81,4.85-0.17,9.35-1.37,13.85c-3.79,14.28-9.45,27.75-18.02,39.91
			c-0.61,0.86-1.22,1.96,0.38,3.59c10.3-8.31,20.84-16.51,33.01-22.21C303.66,495.7,303.68,514.74,303.71,533.77z M347.41,432.48
			c-7.42,0-14.83,0.02-22.25-0.01c-3.95-0.02-6.56,1.41-6.57,5.77c-0.02,8.49-0.03,16.99-0.02,25.48c0,3.92,1.94,4.76,5.18,2.96
			c9.66-5.38,20.72-7.53,30.4-12.66c7.17-3.8,14.98-7.33,19.13-15.16c2.16-4.07,1.43-6.4-3.63-6.39
			C362.24,432.49,354.82,432.48,347.41,432.48z M319.14,419.23c5.61-0.29,11.22,0.13,16.72-1.44c6.57-1.88,3.85-7.16,4-11.17
			c0.15-4.08-3.02-5.7-6.41-4.84c-10.18,2.56-20.27,5.59-28.89,11.92c-3.07,2.25-2.38,4.24,1.19,4.7
			C310.18,418.96,314.67,418.98,319.14,419.23z"/>
		<path class="st8" d="M148.08,397.41c-0.14-25.01-0.25-50.01-0.44-75.02c-0.03-4.04,1.84-5.48,5.77-5.44
			c19.08,0.19,38.16,0.24,57.24,0.33c-0.12,14.29-0.19,28.57-0.43,42.86c-0.04,2.1,0.2,3.51,2.51,3.87
			c-1.94,8.54-1.47,17.04,0.4,25.51c-2.95,1.47-2.37,4.26-2.56,6.76C189.74,396.79,168.87,394.92,148.08,397.41z"/>
		<path class="st3" d="M148.09,463.29c-0.72-20.07-0.76-40.14,0.02-60.21c3.55,0.39,7.11,1.08,10.66,1.1
			c17.26,0.1,34.53,0.02,51.8,0.01c0.02,16.48,0.06,32.97,0.04,49.45c-0.01,8.98-0.63,9.61-9.45,9.63
			C183.47,463.32,165.78,463.29,148.09,463.29z"/>
		<path class="st12" d="M210.3,534.06c-19.27,0.05-38.55,0.04-57.82,0.23c-3.36,0.03-4.95-0.76-4.89-4.38
			c0.27-17.38,0.39-34.76,0.57-52.14c0,0,0.28-0.05,0.28-0.05c0.42,0.05,0.81-0.01,1.19-0.19c17.73,0.08,35.46,0.13,53.19,0.29
			c2.8,0.02,5.93-0.89,8.18,1.8c-0.16,0.31-0.2,0.64-0.11,0.97c-0.01,15.32-0.01,30.64-0.02,45.95c-0.13,0.31-0.14,0.63-0.02,0.95
			c0.05,1.49,0.1,2.98,0.15,4.47C210.77,532.66,210.54,533.36,210.3,534.06z"/>
		<path class="st13" d="M211.01,479.61c-2.26-2.69-5.38-1.78-8.18-1.8c-17.73-0.16-35.46-0.2-53.19-0.29
			c-0.43-0.17-0.83-0.11-1.2,0.19c0,0-0.28,0.06-0.28,0.05c-0.84-4.82-0.64-9.64-0.07-14.47c17.69,0,35.38,0.02,53.07-0.02
			c8.82-0.02,9.44-0.66,9.45-9.63c0.02-16.48-0.02-32.97-0.04-49.45c0-2.64-0.01-5.28-0.01-7.92c0.19-2.5-0.39-5.3,2.56-6.76
			c1.17,2.38,2.47,4.71,3.49,7.16c5.13,12.21,15.2,21.31,20.99,33.1c-0.87,1.81-2.42,2.71-4.34,2.57c-7.03-0.49-7.89,3.69-7.87,9.34
			c0.12,30.73,0.04,61.46,0.03,92.2c-4.45,0.04-8.9,0.09-13.34,0.13c-0.36-0.68-0.71-1.37-1.07-2.05c-0.05-1.49-0.1-2.98-0.15-4.46
			c0.28-0.31,0.28-0.63,0.02-0.95c0.01-15.32,0.01-30.64,0.02-45.95C211.18,480.29,211.22,479.97,211.01,479.61z"/>
		<path class="st3" d="M401.9,504.92c0.07,8.02,0.03,16.04,0.25,24.06c0.1,3.69-1.26,5.24-5.05,5.21c-26.2-0.2-52.4-0.29-78.61-0.41
			c0.02-9.65,0.05-19.3,0.07-28.95C346.35,504.85,374.13,504.89,401.9,504.92z"/>
		<path class="st13" d="M354.2,401.61c-1.29-0.37-2.56-0.89-3.88-1.09c-10.22-1.62-10.22-1.61-10.23-12.16
			c0-5.13-0.05-10.26-0.04-15.39c0.01-4.09-1.9-6.33-6.1-6.21c-5.97,0.17-12.17-1.3-17.67,2.38c-0.62-5.18-2.98-9.84-4.53-14.74
			c1.75-2.1,4.15-2.45,6.69-2.44c4.48,0.01,8.99-0.28,13.44,0.05c6.02,0.44,8.57-1.72,8.3-7.99c-0.39-8.9-0.08-17.83-0.08-26.75
			c4.07,0.01,8.15,0.03,12.22,0.04c0.49,0.37,0.97,0.73,1.46,1.1c0.1,9.15,0.42,18.31,0.19,27.46c-0.13,5.1,1.39,7.1,6.84,6.99
			c13.69-0.29,27.4,0,41.1,0.05c0.01,4.81,0.02,9.61,0.03,14.42c-13.84,0.06-27.68,0.25-41.52,0.1c-4.67-0.05-6.32,1.65-6.23,6.22
			C354.41,382.95,354.23,392.29,354.2,401.61z"/>
		<path class="st8" d="M340.12,317.26c-0.01,8.92-0.31,17.85,0.08,26.75c0.27,6.27-2.28,8.43-8.3,7.99
			c-4.46-0.33-8.96-0.04-13.44-0.05c-2.54-0.01-4.93,0.34-6.69,2.44c-0.41-0.5-0.93-0.96-1.23-1.52
			c-11.54-21.41-31.87-31.51-55.78-27.89c-10.8,1.64-19.52,7.27-27.87,13.73c-2.66-7.01-0.91-14.31-1.44-21.46
			C263.67,316.73,301.89,316.71,340.12,317.26z"/>
		<path class="st4" d="M354.2,401.61c0.03-9.33,0.21-18.66,0.02-27.98c-0.09-4.57,1.56-6.27,6.23-6.22
			c13.84,0.16,27.68-0.04,41.52-0.1c0.41,16.9,0.61,33.79-0.12,50.69c-0.76,0.11-1.52,0.22-2.28,0.33
			c-6.81-0.64-13.62-0.49-20.42,0.01c-0.88-0.25-1.75-0.51-2.63-0.76c-1.84-9.35-10.34-15.59-21.71-15.94L354.2,401.61z"/>
		<path class="st4" d="M401.94,352.9c-13.7-0.06-27.41-0.34-41.1-0.05c-5.45,0.12-6.97-1.88-6.84-6.99
			c0.23-9.15-0.1-18.31-0.2-27.46c0.17-0.42,0.35-0.84,0.52-1.26c14.08-0.09,28.15-0.12,42.23-0.3c3.86-0.05,5.8,1.28,5.72,5.39
			C402.06,332.46,402.04,342.68,401.94,352.9z"/>
		<path class="st13" d="M318.57,504.82c-0.02,9.65-0.05,19.3-0.07,28.95c-4.93,0.56-9.86,0.58-14.8,0
			c-0.02-19.03-0.05-38.07-0.07-57.1c0.03-0.43,0.06-0.85,0.09-1.28c3.48-0.15,6.4-1.79,9.26-3.51c3.75-2.26,5.41-0.86,5.46,3.1
			c0.1,7.75,0.1,15.51,0.14,23.26C318.58,500.44,318.58,502.63,318.57,504.82z"/>
		<path class="st11" d="M318.57,504.82c0.01-2.19,0.01-4.38,0.02-6.57c24.45-0.02,48.89-0.02,73.34-0.07
			c3.4-0.01,6.71,0.39,9.97,1.29c0,1.82,0,3.64,0.01,5.46C374.13,504.89,346.35,504.85,318.57,504.82z"/>
		<path class="st13" d="M225.44,317.27c0.53,7.15-1.22,14.45,1.44,21.46c-6.31,7.54-11.6,15.65-14.16,25.27
			c-2.31-0.35-2.54-1.76-2.51-3.87c0.24-14.28,0.31-28.57,0.43-42.86C215.58,317.27,220.51,317.27,225.44,317.27z"/>
		<path class="st11" d="M210.56,396.28c0,2.64,0.01,5.28,0.01,7.92c-17.27,0.01-34.53,0.09-51.8-0.01
			c-3.56-0.02-7.11-0.72-10.66-1.1c-0.01-1.89-0.02-3.78-0.03-5.67C168.87,394.92,189.74,396.79,210.56,396.28z"/>
		<path class="st13" d="M379.15,418.34c6.81-0.49,13.62-0.64,20.42-0.01c0.78,0.65,1.56,1.31,2.34,1.96
			c-0.02,4.48-0.05,8.97-0.07,13.45c-5.44-1.85-11.09-1.42-16.66-1.26c-5.61,0.17-8.03-1.61-6.33-7.5
			C379.46,422.92,379.08,420.57,379.15,418.34z"/>
		<path class="st1" d="M394.46,564.84c-2.29,1.73-4.97,1.76-7.67,1.75c-18.53-0.01-37.07-0.01-55.6,0c-2.7,0-5.38-0.04-7.7-1.71
			C347.13,563.65,370.8,563.58,394.46,564.84z"/>
		<path class="st1" d="M280.83,286.93c0.85-1.48,1.7-1.48,2.55,0.01C282.53,286.93,281.68,286.93,280.83,286.93z"/>
		<path class="st8" d="M401.92,420.3c-0.78-0.65-1.56-1.31-2.34-1.96c0.76-0.11,1.52-0.22,2.28-0.33
			C401.87,418.77,401.9,419.53,401.92,420.3z"/>
		<path class="st11" d="M211.01,531.96c0.36,0.68,0.71,1.37,1.07,2.05c-0.59,0.02-1.19,0.03-1.78,0.05
			C210.54,533.36,210.77,532.66,211.01,531.96z"/>
		<path class="st11" d="M433.03,533.06c0.46,0.31,0.91,0.62,1.37,0.93C433.94,533.67,433.49,533.36,433.03,533.06z"/>
		<path class="st1" d="M401.54,566.56c-0.84-0.54-1.67-1.07-2.52-1.61C400.18,564.99,401,565.56,401.54,566.56z"/>
		<path class="st10" d="M435.14,286.25c0.61,0.25,1.21,0.5,1.82,0.75C436.35,286.75,435.75,286.5,435.14,286.25z"/>
		<path class="st8" d="M354.32,317.15c-0.17,0.42-0.35,0.84-0.52,1.26c-0.49-0.37-0.97-0.73-1.46-1.1
			C353,317.25,353.66,317.2,354.32,317.15z"/>
		<path class="st7" d="M282.11,244.6c-1.36-0.43-2.26-1.32-2.69-2.68C280.77,242.35,281.67,243.25,282.11,244.6z"/>
		<path class="st14" d="M212.72,364c2.57-9.62,7.85-17.73,14.16-25.27c8.35-6.46,17.07-12.09,27.87-13.73
			c23.92-3.63,44.24,6.47,55.78,27.89c0.3,0.56,0.82,1.02,1.23,1.52c1.55,4.9,3.91,9.55,4.53,14.74
			c1.89,16.92-5.24,30.77-15.01,43.75c-19.62,26.09-31.06,55.45-35.29,87.67c-0.22,1.67,0.43,4.18-2.09,4.18
			c-2.5,0-1.91-2.5-2.11-4.18c-2.98-25.32-11.26-48.85-24.2-70.8c-5.79-11.79-15.86-20.89-20.99-33.1
			c-1.03-2.44-2.32-4.77-3.49-7.16C211.25,381.03,210.78,372.53,212.72,364z M264.02,358.57c-9.7,0.01-18.06,7.77-18.18,16.87
			c-0.13,9.75,8.47,18.81,17.97,18.93c9.13,0.11,17.97-8.69,18.12-18.06C282.08,366.55,274.02,358.56,264.02,358.57z"/>
		<path class="st15" d="M347.41,432.48c7.42,0,14.83,0.01,22.25-0.01c5.05-0.01,5.79,2.32,3.63,6.39
			c-4.15,7.83-11.96,11.36-19.13,15.16c-9.68,5.13-20.74,7.28-30.4,12.66c-3.23,1.8-5.17,0.95-5.18-2.96
			c-0.01-8.49,0-16.99,0.02-25.48c0.01-4.36,2.62-5.78,6.57-5.77C332.58,432.5,339.99,432.48,347.41,432.48z"/>
		<path class="st15" d="M303.73,475.4c-0.03,0.43-0.06,0.85-0.09,1.28c-12.17,5.7-22.71,13.9-33.01,22.21
			c-1.61-1.63-0.99-2.73-0.38-3.59c8.57-12.16,14.23-25.63,18.02-39.91c1.2-4.5,2.18-9,1.37-13.85c-0.66-3.96-0.21-8.69,4.59-9.81
			c5.81-1.35,9.36,2.35,9.41,8.86C303.73,452.18,303.7,463.79,303.73,475.4z"/>
		<path class="st15" d="M319.14,419.23c-4.47-0.25-8.96-0.27-13.39-0.84c-3.57-0.46-4.26-2.44-1.19-4.7
			c8.63-6.33,18.71-9.36,28.89-11.92c3.39-0.85,6.56,0.77,6.41,4.84c-0.15,4.01,2.57,9.3-4,11.17
			C330.36,419.36,324.75,418.94,319.14,419.23z"/>
		<path class="st10" d="M354.81,401.65c11.37,0.35,19.87,6.59,21.71,15.94c-7.45,0.32-14.9,0.68-22.34-0.21c0,0-0.09-0.27-0.09-0.27
			C354.33,411.95,354.57,406.8,354.81,401.65z"/>
		<path class="st13" d="M354.09,417.11c0,0,0.09,0.27,0.09,0.27C354.18,417.37,354.09,417.11,354.09,417.11z"/>
		<path class="st11" d="M210.88,526.54c0.26,0.33,0.26,0.64-0.02,0.95C210.75,527.17,210.75,526.86,210.88,526.54z"/>
		<path class="st11" d="M211.01,479.61c0.21,0.35,0.17,0.68-0.11,0.98C210.81,480.25,210.85,479.93,211.01,479.61z"/>
		<path class="st11" d="M148.44,477.71c0.36-0.3,0.76-0.36,1.2-0.19C149.26,477.7,148.86,477.76,148.44,477.71z"/>
		<path class="st1" d="M264.02,358.57c10-0.01,18.06,7.98,17.9,17.75c-0.15,9.36-8.98,18.17-18.12,18.06
			c-9.5-0.12-18.1-9.18-17.97-18.93C245.96,366.34,254.33,358.58,264.02,358.57z"/>
	</g>
</g>
</svg>
